<mxfile host="app.diagrams.net" modified="2023-11-01T11:03:54.521Z" agent="Mozilla/5.0 (Windows NT 10.0; Win64; x64) AppleWebKit/537.36 (KHTML, like Gecko) Chrome/118.0.0.0 Safari/537.36" version="21.3.2" etag="hCVVc8kQHq8dhyiELS4b" type="github">
  <diagram name="Page-1" id="goW-xutGmIgGnAvLxzgP">
    <mxGraphModel>
      <root>
        <mxCell id="0" />
        <mxCell id="1" parent="0" />
      </root>
    </mxGraphModel>
  </diagram>
</mxfile>
